<svg xmlns="http://www.w3.org/2000/svg" viewBox="0 0 1680 800" font-family="'Segoe UI',Arial,sans-serif">
  <defs>
    <marker id="k" markerWidth="11" markerHeight="11" refX="8" refY="3.5" orient="auto"><path d="M0,0 L8,3.5 L0,7 Z" fill="#333"/></marker>
    <marker id="u" markerWidth="11" markerHeight="11" refX="8" refY="3.5" orient="auto"><path d="M0,0 L8,3.5 L0,7 Z" fill="#2A2AD0"/></marker>
  </defs>
  <rect x="0" y="0" width="1680" height="800" fill="#FFFFFF"/>

  <!-- ============ TOP ANNOTATIONS ============ -->
  <!-- Do Technical Architecture -->
  <g>
    <rect x="545" y="22" width="180" height="42" rx="8" fill="#F6A340" stroke="#CE7A1F" stroke-width="1.6"/>
    <text x="635" y="48" font-size="12.5" font-weight="600" fill="#1A1A1A" text-anchor="middle">Susun Arsitektur Teknis</text>
    <path d="M635,64 C635,120 655,150 672,192" fill="none" stroke="#333" stroke-width="1.6" marker-end="url(#k)"/>
  </g>
  <!-- Generate Unit Tests (blue long arrow, top) -->
  <path d="M812,206 L812,44 L1476,44 L1476,196" fill="none" stroke="#2A2AD0" stroke-width="1.6" marker-end="url(#u)"/>
  <text x="1150" y="36" font-size="12" fill="#2A2AD0" text-anchor="middle">[Bangkitkan unit test dari controller &lt;add-in&gt;]</text>

  <!-- ============ PHASES (x=210,600,990,1380 w=270) ============ -->

  <!-- ===== Phase 1 ===== -->
  <g>
    <rect x="210" y="140" width="270" height="470" rx="10" fill="#F6A340" stroke="#CE7A1F" stroke-width="2"/>
    <text x="345" y="172" font-size="16" font-weight="700" fill="#1A1A1A" text-anchor="middle">ANALISIS KEBUTUHAN</text>
    <!-- use case -->
    <g stroke="#1A1A1A" stroke-width="1.5" fill="#FFFFFF">
      <rect x="330" y="212" width="66" height="60" rx="3"/>
      <ellipse cx="363" cy="228" rx="22" ry="8"/><ellipse cx="363" cy="242" rx="22" ry="8"/><ellipse cx="363" cy="256" rx="22" ry="8"/>
      <circle cx="303" cy="222" r="6" fill="#FFFFFF"/><line x1="303" y1="228" x2="303" y2="244"/><line x1="294" y1="234" x2="312" y2="234"/><line x1="303" y1="244" x2="296" y2="255"/><line x1="303" y1="244" x2="310" y2="255"/>
      <line x1="312" y1="232" x2="329" y2="230" fill="none"/>
    </g>
    <text x="345" y="330" font-size="14" font-weight="600" fill="#1A1A1A" text-anchor="middle">Pemodelan</text>
    <text x="345" y="347" font-size="14" font-weight="600" fill="#1A1A1A" text-anchor="middle">Use Case</text>
    <!-- domain tree -->
    <g stroke="#1A1A1A" stroke-width="1.5" fill="#FFFFFF">
      <rect x="334" y="404" width="24" height="20"/><rect x="308" y="452" width="24" height="20"/><rect x="360" y="452" width="24" height="20"/>
    </g>
    <g stroke="#1A1A1A" stroke-width="1.3" fill="none"><line x1="346" y1="424" x2="346" y2="438"/><line x1="320" y1="438" x2="372" y2="438"/><line x1="320" y1="438" x2="320" y2="452"/><line x1="372" y1="438" x2="372" y2="452"/></g>
    <text x="345" y="548" font-size="14" font-weight="600" fill="#1A1A1A" text-anchor="middle">Pemodelan</text>
    <text x="345" y="565" font-size="14" font-weight="600" fill="#1A1A1A" text-anchor="middle">Domain</text>
    <!-- activity marker -->
    <g><rect x="438" y="586" width="22" height="12" rx="3" fill="#FFFFFF" stroke="#1A1A1A"/><circle cx="445" cy="592" r="2.4" fill="none" stroke="#1A1A1A"/><circle cx="453" cy="592" r="2.4" fill="none" stroke="#1A1A1A"/></g>
  </g>

  <!-- ===== Phase 2 ===== -->
  <g>
    <rect x="600" y="140" width="270" height="470" rx="10" fill="#F6A340" stroke="#CE7A1F" stroke-width="2"/>
    <text x="735" y="172" font-size="16" font-weight="700" fill="#1A1A1A" text-anchor="middle">ANALISIS &amp; DESAIN AWAL</text>
    <!-- robustness -->
    <g stroke="#1A1A1A" stroke-width="1.5" fill="#FFFFFF">
      <circle cx="672" cy="232" r="6"/><line x1="672" y1="238" x2="672" y2="254"/><line x1="663" y1="244" x2="681" y2="244"/><line x1="672" y1="254" x2="665" y2="265"/><line x1="672" y1="254" x2="679" y2="265"/>
      <circle cx="712" cy="244" r="13"/><line x1="699" y1="231" x2="699" y2="257"/>
      <circle cx="752" cy="224" r="13"/><path d="M746,219 a5,5 0 1 1 -1,7" fill="none"/>
      <circle cx="754" cy="266" r="13"/><line x1="742" y1="279" x2="766" y2="279"/>
    </g>
    <g stroke="#1A1A1A" stroke-width="1.3" fill="none"><line x1="681" y1="244" x2="698" y2="244"/><line x1="724" y1="238" x2="740" y2="229"/><line x1="723" y1="251" x2="742" y2="262"/></g>
    <text x="735" y="330" font-size="14" font-weight="600" fill="#1A1A1A" text-anchor="middle">Analisis Robustness</text>
    <!-- update domain tree -->
    <g stroke="#1A1A1A" stroke-width="1.5" fill="#FFFFFF">
      <rect x="724" y="404" width="24" height="20"/><rect x="698" y="452" width="24" height="20"/><rect x="750" y="452" width="24" height="20"/>
    </g>
    <g stroke="#1A1A1A" stroke-width="1.3" fill="none"><line x1="736" y1="424" x2="736" y2="438"/><line x1="710" y1="438" x2="762" y2="438"/><line x1="710" y1="438" x2="710" y2="452"/><line x1="762" y1="438" x2="762" y2="452"/></g>
    <text x="735" y="548" font-size="13.5" font-weight="600" fill="#1A1A1A" text-anchor="middle">Pemutakhiran</text>
    <text x="735" y="565" font-size="13.5" font-weight="600" fill="#1A1A1A" text-anchor="middle">Model Domain</text>
    <g><rect x="828" y="586" width="22" height="12" rx="3" fill="#FFFFFF" stroke="#1A1A1A"/><circle cx="835" cy="592" r="2.4" fill="none" stroke="#1A1A1A"/><circle cx="843" cy="592" r="2.4" fill="none" stroke="#1A1A1A"/></g>
    <!-- object discovery (vertical) -->
    <line x1="712" y1="290" x2="712" y2="400" stroke="#333" stroke-width="1.6" marker-end="url(#k)"/>
    <text x="762" y="360" font-size="11.5" fill="#2A2AD0">[penemuan objek]</text>
  </g>

  <!-- ===== Phase 3 ===== -->
  <g>
    <rect x="990" y="140" width="270" height="470" rx="10" fill="#F6A340" stroke="#CE7A1F" stroke-width="2"/>
    <text x="1125" y="172" font-size="16" font-weight="700" fill="#1A1A1A" text-anchor="middle">DESAIN TERPERINCI</text>
    <!-- sequence -->
    <g stroke="#1A1A1A" stroke-width="1.4" fill="#FFFFFF">
      <circle cx="1058" cy="222" r="5"/><line x1="1058" y1="227" x2="1058" y2="240"/><line x1="1050" y1="232" x2="1066" y2="232"/><line x1="1058" y1="240" x2="1052" y2="249"/><line x1="1058" y1="240" x2="1064" y2="249"/>
      <rect x="1082" y="210" width="24" height="13"/><rect x="1118" y="210" width="24" height="13"/><rect x="1154" y="210" width="24" height="13"/>
    </g>
    <g stroke="#1A1A1A" stroke-width="1.2" fill="none">
      <line x1="1094" y1="223" x2="1094" y2="278" stroke-dasharray="4 3"/><line x1="1130" y1="223" x2="1130" y2="278" stroke-dasharray="4 3"/><line x1="1166" y1="223" x2="1166" y2="278" stroke-dasharray="4 3"/>
      <rect x="1090" y="234" width="8" height="30" fill="#FFFFFF"/><rect x="1126" y="242" width="8" height="24" fill="#FFFFFF"/>
      <line x1="1098" y1="240" x2="1126" y2="240" stroke-width="1.4" marker-end="url(#k)"/>
      <line x1="1134" y1="252" x2="1162" y2="252" stroke-width="1.4" marker-end="url(#k)"/>
    </g>
    <text x="1125" y="330" font-size="14" font-weight="600" fill="#1A1A1A" text-anchor="middle">Diagram Sekuens</text>
    <!-- class model tree + diamond -->
    <g stroke="#1A1A1A" stroke-width="1.5" fill="#FFFFFF">
      <rect x="1114" y="404" width="24" height="20"/><rect x="1088" y="452" width="24" height="20"/><rect x="1140" y="452" width="24" height="20"/>
      <path d="M1126,432 l6,6 l-6,6 l-6,-6 z"/>
    </g>
    <g stroke="#1A1A1A" stroke-width="1.3" fill="none"><line x1="1100" y1="444" x2="1152" y2="444"/><line x1="1100" y1="444" x2="1100" y2="452"/><line x1="1152" y1="444" x2="1152" y2="452"/></g>
    <text x="1125" y="548" font-size="13.5" font-weight="600" fill="#1A1A1A" text-anchor="middle">Finalisasi</text>
    <text x="1125" y="565" font-size="13.5" font-weight="600" fill="#1A1A1A" text-anchor="middle">Model Kelas</text>
    <g><rect x="1218" y="586" width="22" height="12" rx="3" fill="#FFFFFF" stroke="#1A1A1A"/><circle cx="1225" cy="592" r="2.4" fill="none" stroke="#1A1A1A"/><circle cx="1233" cy="592" r="2.4" fill="none" stroke="#1A1A1A"/></g>
    <!-- behavior allocation (vertical) -->
    <line x1="1125" y1="290" x2="1125" y2="400" stroke="#333" stroke-width="1.6" marker-end="url(#k)"/>
    <text x="1135" y="360" font-size="11.5" fill="#2A2AD0">[alokasi perilaku]</text>
  </g>

  <!-- ===== Phase 4 ===== -->
  <g>
    <rect x="1380" y="140" width="270" height="470" rx="10" fill="#F6A340" stroke="#CE7A1F" stroke-width="2"/>
    <text x="1515" y="172" font-size="16" font-weight="700" fill="#1A1A1A" text-anchor="middle">IMPLEMENTASI</text>
    <!-- tests stack -->
    <g stroke="#1A1A1A" stroke-width="1.4" fill="#FFFFFF">
      <rect x="1500" y="200" width="64" height="80"/><rect x="1490" y="210" width="64" height="80"/><rect x="1480" y="220" width="64" height="80"/>
    </g>
    <g stroke="#B9C0CC" stroke-width="1.1"><line x1="1488" y1="240" x2="1536" y2="240"/><line x1="1488" y1="250" x2="1536" y2="250"/><line x1="1488" y1="260" x2="1536" y2="260"/><line x1="1488" y1="270" x2="1520" y2="270"/></g>
    <text x="1512" y="234" font-size="10" font-weight="700" fill="#1A1A1A" text-anchor="middle">Test 1</text>
    <text x="1546" y="220" font-size="9" fill="#5A5A5A" text-anchor="middle">Test 2</text>
    <text x="1556" y="210" font-size="9" fill="#5A5A5A" text-anchor="middle">Test 3</text>
    <text x="1515" y="330" font-size="14" font-weight="600" fill="#1A1A1A" text-anchor="middle">Pengujian</text>
    <!-- floppy code -->
    <g stroke="#1A1A1A" stroke-width="1.5" fill="#FFFFFF">
      <path d="M1478,410 h56 l14,14 v52 a2,2 0 0 1 -2,2 h-66 a2,2 0 0 1 -2,-2 v-64 a2,2 0 0 1 2,-2 z"/>
      <rect x="1492" y="410" width="34" height="18" fill="#FFFFFF"/><rect x="1512" y="413" width="8" height="12" fill="#1A1A1A" stroke="none"/>
      <rect x="1488" y="446" width="48" height="30" fill="#FFFFFF"/>
    </g>
    <text x="1512" y="466" font-size="11" font-weight="700" fill="#1A1A1A" text-anchor="middle" stroke="none">Code</text>
    <text x="1515" y="548" font-size="14" font-weight="600" fill="#1A1A1A" text-anchor="middle">Kode</text>
    <g><rect x="1608" y="586" width="22" height="12" rx="3" fill="#FFFFFF" stroke="#1A1A1A"/><circle cx="1615" cy="592" r="2.4" fill="none" stroke="#1A1A1A"/><circle cx="1623" cy="592" r="2.4" fill="none" stroke="#1A1A1A"/></g>
  </g>

  <!-- ============ REVIEW BOXES (between phases) ============ -->
  <g font-size="11.5" font-weight="600" fill="#1A1A1A" text-anchor="middle">
    <rect x="485" y="306" width="110" height="56" rx="9" fill="#F6A340" stroke="#CE7A1F" stroke-width="1.6"/>
    <text x="540" y="330">Tinjauan</text><text x="540" y="345">Kebutuhan</text>
    <rect x="562" y="352" width="16" height="9" rx="2" fill="#FFFFFF" stroke="#1A1A1A"/><circle cx="567" cy="356.5" r="1.8" fill="none" stroke="#1A1A1A"/><circle cx="573" cy="356.5" r="1.8" fill="none" stroke="#1A1A1A"/>
    <rect x="875" y="306" width="110" height="56" rx="9" fill="#F6A340" stroke="#CE7A1F" stroke-width="1.6"/>
    <text x="930" y="330">Tinjauan</text><text x="930" y="345">Desain Awal</text>
    <rect x="952" y="352" width="16" height="9" rx="2" fill="#FFFFFF" stroke="#1A1A1A"/><circle cx="957" cy="356.5" r="1.8" fill="none" stroke="#1A1A1A"/><circle cx="963" cy="356.5" r="1.8" fill="none" stroke="#1A1A1A"/>
    <rect x="1265" y="306" width="110" height="56" rx="9" fill="#F6A340" stroke="#CE7A1F" stroke-width="1.6"/>
    <text x="1320" y="328">Tinjauan Desain</text><text x="1320" y="343">Terperinci</text>
    <rect x="1342" y="352" width="16" height="9" rx="2" fill="#FFFFFF" stroke="#1A1A1A"/><circle cx="1347" cy="356.5" r="1.8" fill="none" stroke="#1A1A1A"/><circle cx="1353" cy="356.5" r="1.8" fill="none" stroke="#1A1A1A"/>
  </g>

  <!-- ============ EXTERNAL LEFT ============ -->
  <g>
    <rect x="40" y="252" width="112" height="70" rx="3" fill="#FFFFFF" stroke="#1A1A1A" stroke-width="1.5"/>
    <rect x="48" y="260" width="96" height="46" fill="#F4F8FF" stroke="#8895AD"/>
    <line x1="56" y1="271" x2="136" y2="271" stroke="#B9C6DD"/><line x1="56" y1="281" x2="136" y2="281" stroke="#B9C6DD"/><line x1="56" y1="291" x2="112" y2="291" stroke="#B9C6DD"/>
    <rect x="82" y="322" width="28" height="8" fill="#EDEFF3" stroke="#1A1A1A"/><rect x="70" y="330" width="52" height="6" rx="2" fill="#DfE3EA" stroke="#1A1A1A"/>
    <text x="96" y="356" font-size="12.5" font-weight="600" fill="#1A1A1A" text-anchor="middle">Prototipe</text>
    <text x="96" y="372" font-size="12.5" font-weight="600" fill="#1A1A1A" text-anchor="middle">Antarmuka (GUI)</text>
  </g>
  <!-- Gather Requirements -->
  <g>
    <rect x="24" y="690" width="150" height="46" rx="9" fill="#F6A340" stroke="#CE7A1F" stroke-width="1.6"/>
    <text x="99" y="712" font-size="12" font-weight="600" fill="#1A1A1A" text-anchor="middle">Kumpulkan</text>
    <text x="99" y="726" font-size="12" font-weight="600" fill="#1A1A1A" text-anchor="middle">Kebutuhan</text>
    <rect x="140" y="726" width="16" height="9" rx="2" fill="#FFFFFF" stroke="#1A1A1A"/><circle cx="145" cy="730.5" r="1.8" fill="none" stroke="#1A1A1A"/><circle cx="151" cy="730.5" r="1.8" fill="none" stroke="#1A1A1A"/>
  </g>

  <!-- ============ MAIN BLACK FLOW ARROWS ============ -->
  <g stroke="#333" stroke-width="1.7" fill="none">
    <line x1="152" y1="285" x2="208" y2="255" marker-end="url(#k)"/>
    <path d="M99,690 C99,600 150,560 208,500" marker-end="url(#k)"/>
    <!-- P1 -> R1 (use case), R1 -> robustness -->
    <line x1="398" y1="270" x2="486" y2="326" marker-end="url(#k)"/>
    <line x1="594" y1="326" x2="662" y2="262" marker-end="url(#k)"/>
    <!-- P1 domain -> P2 update domain -->
    <line x1="386" y1="462" x2="696" y2="462" marker-end="url(#k)"/>
    <!-- P2 robustness -> R2 -> P3 sequence -->
    <line x1="788" y1="262" x2="876" y2="326" marker-end="url(#k)"/>
    <line x1="984" y1="326" x2="1052" y2="262" marker-end="url(#k)"/>
    <!-- P2 update domain -> P3 class -->
    <line x1="776" y1="462" x2="1086" y2="462" marker-end="url(#k)"/>
    <!-- P3 sequence -> R3 -> P4 pruebas -->
    <line x1="1178" y1="262" x2="1266" y2="326" marker-end="url(#k)"/>
    <line x1="1374" y1="326" x2="1470" y2="266" marker-end="url(#k)"/>
    <!-- P3 class -> P4 code -->
    <line x1="1166" y1="462" x2="1476" y2="462" marker-end="url(#k)"/>
  </g>

  <!-- ============ BLUE ADD-IN ARROWS ============ -->
  <!-- Disambiguation: robustness -> use cases (left) -->
  <line x1="662" y1="240" x2="400" y2="240" stroke="#2A2AD0" stroke-width="1.6" marker-end="url(#u)"/>
  <text x="540" y="224" font-size="11.5" fill="#2A2AD0" text-anchor="middle">[Penyelarasan: tulis ulang</text>
  <text x="540" y="238" font-size="11.5" fill="#2A2AD0" text-anchor="middle">draf awal use case]</text>
  <!-- Generate Skeleton Sequence: robustness -> sequence -->
  <line x1="800" y1="240" x2="1080" y2="240" stroke="#2A2AD0" stroke-width="1.6" marker-end="url(#u)"/>
  <text x="930" y="212" font-size="11.5" fill="#2A2AD0" text-anchor="middle">[Bangkitkan kerangka</text>
  <text x="930" y="226" font-size="11.5" fill="#2A2AD0" text-anchor="middle">diagram sekuens &lt;Add-In&gt;]</text>
  <!-- Generate Code: class -> code -->
  <line x1="1166" y1="452" x2="1476" y2="452" stroke="#2A2AD0" stroke-width="1.6" marker-end="url(#u)"/>
  <text x="1320" y="444" font-size="11.5" fill="#2A2AD0" text-anchor="middle">[Bangkitkan kode]</text>

  <!-- ============ BOTTOM: Code Review + loops ============ -->
  <g>
    <rect x="1300" y="650" width="156" height="52" rx="9" fill="#F6A340" stroke="#CE7A1F" stroke-width="1.6"/>
    <text x="1378" y="672" font-size="11.5" font-weight="600" fill="#1A1A1A" text-anchor="middle">Tinjau Kode &amp;</text>
    <text x="1378" y="687" font-size="11.5" font-weight="600" fill="#1A1A1A" text-anchor="middle">Pemutakhiran Model</text>
    <rect x="1424" y="692" width="16" height="9" rx="2" fill="#FFFFFF" stroke="#1A1A1A"/><circle cx="1429" cy="696.5" r="1.8" fill="none" stroke="#1A1A1A"/><circle cx="1435" cy="696.5" r="1.8" fill="none" stroke="#1A1A1A"/>
  </g>
  <!-- code review <- code (feed) -->
  <path d="M1512,478 C1512,560 1450,610 1400,648" fill="none" stroke="#333" stroke-width="1.6" marker-end="url(#k)"/>
  <!-- Synchronize Model and Code: code review -> class model (blue, up) -->
  <path d="M1360,650 L1360,590 L1150,590 L1150,478" fill="none" stroke="#2A2AD0" stroke-width="1.6" marker-end="url(#u)"/>
  <text x="1150" y="606" font-size="11.5" fill="#2A2AD0" text-anchor="middle">[Sinkronkan model &amp; kode &lt;MDG Integration&gt;]</text>
  <!-- next iteration (black loop bottom) -->
  <path d="M1300,690 L1300,772 L99,772 L99,738" fill="none" stroke="#333" stroke-width="1.6" marker-end="url(#k)"/>
  <text x="700" y="766" font-size="12" fill="#1A1A1A" text-anchor="middle">[iterasi berikutnya]</text>

  <!-- ICONIX mark + note -->
  <text x="1600" y="712" font-size="17" font-weight="800" fill="#C0392B" text-anchor="end">ICONIX</text>
  <text x="1600" y="730" font-size="9.5" fill="#2A2AD0" text-anchor="end">Note: ICONIX Website</text>
</svg>
